<?xml version="1.0" encoding="utf-8"?>
<!-- Generator: Adobe Illustrator 27.2.0, SVG Export Plug-In . SVG Version: 6.00 Build 0)  -->
<svg version="1.1" id="logo-85" xmlns="http://www.w3.org/2000/svg" xmlns:xlink="http://www.w3.org/1999/xlink" x="0px" y="0px"
	 viewBox="0 0 32 32" style="enable-background:new 0 0 32 32;" xml:space="preserve">
<style type="text/css">
	.st0{fill-rule:evenodd;clip-rule:evenodd;fill:#5417D7;}
</style>
<path class="st0" d="M8,0c4.4,0,8,3.6,8,8V0h8c4.4,0,8,3.6,8,8c0,4.4-3.6,8-8,8c4.4,0,8,3.6,8,8c0,2.2-0.9,4.2-2.3,5.6l0,0l0,0
	C28.2,31.1,26.2,32,24,32c-2.2,0-4.2-0.9-5.6-2.3c0,0,0,0-0.1-0.1c0,0,0,0-0.1-0.1C16.9,28.2,16,26.2,16,24c0,4.4-3.6,8-8,8
	c-4.4,0-8-3.6-8-8v-8h8c-4.4,0-8-3.6-8-8C0,3.6,3.6,0,8,0z M14.4,8c0,3.5-2.9,6.4-6.4,6.4V1.6C11.5,1.6,14.4,4.5,14.4,8z M30.4,24
	c0-3.5-2.9-6.4-6.4-6.4s-6.4,2.9-6.4,6.4H30.4z M1.6,17.6V24c0,3.5,2.9,6.4,6.4,6.4c3.5,0,6.4-2.9,6.4-6.4v-6.4H1.6z M17.6,14.4V1.6
	H24c3.5,0,6.4,2.9,6.4,6.4c0,3.5-2.9,6.4-6.4,6.4H17.6z"/>
</svg>
